cl__1 = 8;
cl__2 = 2;
cl__3 = 1;
cl__4 = 4;
Point(5) = {0, 0, 0, cl__1};
Point(6) = {353, 0, 0, cl__1};
Point(7) = {353, 273, 0, cl__1};
Point(8) = {0, 273, 0, cl__1};
Point(9) = {0, 0, 35, cl__2};
Point(10) = {40, 0, 35, cl__2};
Point(13) = {313, 0, 35, cl__2};
Point(14) = {353, 0, 35, cl__2};
Point(15) = {353, 60, 35, cl__2};
Point(16) = {313, 60, 35, cl__2};
Point(17) = {256.5, 60, 35, cl__2};
Point(18) = {96.5, 60, 35, cl__2};
Point(19) = {40, 60, 35, cl__2};
Point(20) = {0, 60, 35, cl__2};
Point(21) = {0, 0, 40, cl__3};
Point(22) = {40, 0, 40, cl__3};
Point(25) = {313, 0, 40, cl__3};
Point(26) = {353, 0, 40, cl__3};
Point(27) = {353, 60, 40, cl__3};
Point(28) = {313, 60, 40, cl__3};
Point(29) = {256.5, 60, 40, cl__3};
Point(30) = {96.5, 60, 40, cl__3};
Point(31) = {40, 60, 40, cl__3};
Point(32) = {0, 60, 40, cl__3};
Point(39) = {353, 213, 35, cl__2};
Point(40) = {313, 213, 35, cl__2};
Point(41) = {256.5, 213, 35, cl__2};
Point(42) = {96.5, 213, 35, cl__2};
Point(43) = {40, 213, 35, cl__2};
Point(44) = {0, 213, 35, cl__2};
Point(51) = {353, 213, 40, cl__3};
Point(52) = {313, 213, 40, cl__3};
Point(53) = {256.5, 213, 40, cl__3};
Point(54) = {96.5, 213, 40, cl__3};
Point(55) = {40, 213, 40, cl__3};
Point(56) = {0, 213, 40, cl__3};
Point(63) = {353, 273, 35, cl__2};
Point(64) = {313, 273, 35, cl__2};
Point(67) = {40, 273, 35, cl__2};
Point(68) = {0, 273, 35, cl__2};
Point(75) = {353, 273, 40, cl__3};
Point(76) = {313, 273, 40, cl__3};
Point(79) = {40, 273, 40, cl__3};
Point(80) = {0, 273, 40, cl__3};
Point(93) = {0, 0, 50, cl__3};
Point(94) = {40, 0, 50, cl__3};
Point(97) = {313, 0, 50, cl__3};
Point(98) = {353, 0, 50, cl__3};
Point(99) = {353, 60, 50, cl__3};
Point(100) = {313, 60, 50, cl__3};
Point(101) = {256.5, 60, 50, cl__3};
Point(102) = {96.5, 60, 50, cl__3};
Point(103) = {40, 60, 50, cl__3};
Point(104) = {0, 60, 50, cl__3};
Point(123) = {353, 213, 50, cl__3};
Point(124) = {313, 213, 50, cl__3};
Point(125) = {256.5, 213, 50, cl__3};
Point(126) = {96.5, 213, 50, cl__3};
Point(127) = {40, 213, 50, cl__3};
Point(128) = {0, 213, 50, cl__3};
Point(147) = {353, 273, 50, cl__3};
Point(148) = {313, 273, 50, cl__3};
Point(151) = {40, 273, 50, cl__3};
Point(152) = {0, 273, 50, cl__3};
Point(165) = {0, 0, 55, cl__2};
Point(166) = {40, 0, 55, cl__2};
Point(169) = {313, 0, 55, cl__2};
Point(170) = {353, 0, 55, cl__2};
Point(171) = {353, 60, 55, cl__2};
Point(172) = {313, 60, 55, cl__2};
Point(173) = {256.5, 60, 55, cl__2};
Point(174) = {96.5, 60, 55, cl__2};
Point(175) = {40, 60, 55, cl__2};
Point(176) = {0, 60, 55, cl__2};
Point(195) = {353, 213, 55, cl__2};
Point(196) = {313, 213, 55, cl__2};
Point(197) = {256.5, 213, 55, cl__2};
Point(198) = {96.5, 213, 55, cl__2};
Point(199) = {40, 213, 55, cl__2};
Point(200) = {0, 213, 55, cl__2};
Point(219) = {353, 273, 55, cl__2};
Point(220) = {313, 273, 55, cl__2};
Point(223) = {40, 273, 55, cl__2};
Point(224) = {0, 273, 55, cl__2};
Point(225) = {0, 0, 60, cl__2};
Point(226) = {40, 0, 60, cl__2};
Point(227) = {313, 0, 60, cl__2};
Point(228) = {353, 0, 60, cl__2};
Point(229) = {353, 60, 60, cl__2};
Point(230) = {353, 213, 60, cl__2};
Point(231) = {353, 273, 60, cl__2};
Point(232) = {313, 273, 60, cl__2};
Point(233) = {40, 273, 60, cl__2};
Point(234) = {0, 273, 60, cl__2};
Point(235) = {0, 213, 60, cl__2};
Point(236) = {0, 60, 60, cl__2};
Point(237) = {40, 60, 60, cl__2};
Point(238) = {313, 60, 60, cl__2};
Point(239) = {313, 213, 60, cl__2};
Point(240) = {40, 213, 60, cl__2};
Point(241) = {40, 7, 67, cl__4};
Point(242) = {313, 7, 67, cl__4};
Point(243) = {313, 113, 67, cl__4};
Point(244) = {40, 113, 67, cl__4};
Point(245) = {40, 7, 87, cl__4};
Point(246) = {313, 7, 87, cl__4};
Point(247) = {313, 113, 87, cl__4};
Point(248) = {40, 113, 87, cl__4};
Point(249) = {40, 160, 67, cl__4};
Point(250) = {313, 160, 67, cl__4};
Point(251) = {313, 266, 67, cl__4};
Point(252) = {40, 266, 67, cl__4};
Point(253) = {40, 160, 87, cl__4};
Point(254) = {313, 160, 87, cl__4};
Point(255) = {313, 266, 87, cl__4};
Point(256) = {40, 266, 87, cl__4};
Point(257) = {7, 60, 94, cl__4};
Point(258) = {73, 60, 94, cl__4};
Point(259) = {73, 120, 94, cl__4};
Point(260) = {7, 120, 94, cl__4};
Point(261) = {7, 120, 74, cl__2};
Point(262) = {73, 120, 74, cl__2};
Point(263) = {73, 153, 74, cl__2};
Point(264) = {7, 153, 74, cl__2};
Point(265) = {7, 153, 94, cl__4};
Point(266) = {73, 153, 94, cl__4};
Point(267) = {73, 213, 94, cl__4};
Point(268) = {7, 213, 94, cl__4};
Point(269) = {7, 60, 104, cl__4};
Point(270) = {73, 60, 104, cl__4};
Point(271) = {73, 213, 104, cl__4};
Point(272) = {7, 213, 104, cl__4};
Point(273) = {80, 60, 101, cl__4};
Point(274) = {113, 60, 101, cl__4};
Point(275) = {113, 120, 101, cl__4};
Point(276) = {80, 120, 101, cl__4};
Point(277) = {80, 120, 81, cl__2};
Point(278) = {113, 120, 81, cl__2};
Point(279) = {113, 153, 81, cl__2};
Point(280) = {80, 153, 81, cl__2};
Point(281) = {80, 153, 101, cl__4};
Point(282) = {113, 153, 101, cl__4};
Point(283) = {113, 213, 101, cl__4};
Point(284) = {80, 213, 101, cl__4};
Point(285) = {80, 60, 111, cl__4};
Point(286) = {113, 60, 111, cl__4};
Point(287) = {113, 213, 111, cl__4};
Point(288) = {80, 213, 111, cl__4};
Point(289) = {120, 60, 94, cl__4};
Point(290) = {153, 60, 94, cl__4};
Point(291) = {153, 120, 94, cl__4};
Point(292) = {120, 120, 94, cl__4};
Point(293) = {120, 120, 74, cl__2};
Point(294) = {153, 120, 74, cl__2};
Point(295) = {153, 153, 74, cl__2};
Point(296) = {120, 153, 74, cl__2};
Point(297) = {120, 153, 94, cl__4};
Point(298) = {153, 153, 94, cl__4};
Point(299) = {153, 213, 94, cl__4};
Point(300) = {120, 213, 94, cl__4};
Point(301) = {120, 60, 104, cl__4};
Point(302) = {153, 60, 104, cl__4};
Point(303) = {153, 213, 104, cl__4};
Point(304) = {120, 213, 104, cl__4};
Point(305) = {200, 60, 94, cl__4};
Point(306) = {233, 60, 94, cl__4};
Point(310) = {233, 120, 94, cl__4};
Point(314) = {200, 120, 94, cl__4};
Point(326) = {200, 120, 74, cl__2};
Point(330) = {233, 120, 74, cl__2};
Point(342) = {233, 153, 74, cl__2};
Point(346) = {200, 153, 74, cl__2};
Point(358) = {233, 153, 94, cl__4};
Point(362) = {200, 153, 94, cl__4};
Point(374) = {233, 213, 94, cl__4};
Point(378) = {200, 213, 94, cl__4};
Point(390) = {233, 60, 104, cl__4};
Point(394) = {200, 60, 104, cl__4};
Point(426) = {233, 213, 104, cl__4};
Point(442) = {200, 213, 104, cl__4};
Point(497) = {280, 60, 94, cl__4};
Point(498) = {346, 60, 94, cl__4};
Point(502) = {346, 120, 94, cl__4};
Point(506) = {280, 120, 94, cl__4};
Point(518) = {280, 120, 74, cl__2};
Point(522) = {346, 120, 74, cl__2};
Point(534) = {346, 153, 74, cl__2};
Point(538) = {280, 153, 74, cl__2};
Point(550) = {346, 153, 94, cl__4};
Point(554) = {280, 153, 94, cl__4};
Point(566) = {346, 213, 94, cl__4};
Point(570) = {280, 213, 94, cl__4};
Point(582) = {346, 60, 104, cl__4};
Point(586) = {280, 60, 104, cl__4};
Point(618) = {346, 213, 104, cl__4};
Point(634) = {280, 213, 104, cl__4};
Point(689) = {160, 60, 101, cl__4};
Point(690) = {193, 60, 101, cl__4};
Point(694) = {193, 120, 101, cl__4};
Point(698) = {160, 120, 101, cl__4};
Point(710) = {160, 120, 81, cl__2};
Point(714) = {193, 120, 81, cl__2};
Point(726) = {193, 153, 81, cl__2};
Point(730) = {160, 153, 81, cl__2};
Point(742) = {193, 153, 101, cl__4};
Point(746) = {160, 153, 101, cl__4};
Point(758) = {193, 213, 101, cl__4};
Point(762) = {160, 213, 101, cl__4};
Point(774) = {193, 60, 111, cl__4};
Point(778) = {160, 60, 111, cl__4};
Point(810) = {193, 213, 111, cl__4};
Point(826) = {160, 213, 111, cl__4};
Point(881) = {240, 60, 101, cl__4};
Point(882) = {273, 60, 101, cl__4};
Point(886) = {273, 120, 101, cl__4};
Point(890) = {240, 120, 101, cl__4};
Point(902) = {240, 120, 81, cl__2};
Point(906) = {273, 120, 81, cl__2};
Point(918) = {273, 153, 81, cl__2};
Point(922) = {240, 153, 81, cl__2};
Point(934) = {273, 153, 101, cl__4};
Point(938) = {240, 153, 101, cl__4};
Point(950) = {273, 213, 101, cl__4};
Point(954) = {240, 213, 101, cl__4};
Point(966) = {273, 60, 111, cl__4};
Point(970) = {240, 60, 111, cl__4};
Point(1002) = {273, 213, 111, cl__4};
Point(1018) = {240, 213, 111, cl__4};
Point(10001) = {0, 0, 118, cl__1};
Point(10002) = {353, 0, 118, cl__1};
Point(10003) = {353, 273, 118, cl__1};
Point(10004) = {0, 273, 118, cl__1};
Line(9) = {5, 6};
Line(10) = {6, 7};
Line(11) = {7, 8};
Line(12) = {8, 5};
Line(13) = {9, 10};
Line(14) = {10, 13};
Line(17) = {13, 14};
Line(18) = {14, 15};
Line(19) = {15, 16};
Line(20) = {16, 17};
Line(21) = {17, 18};
Line(22) = {18, 19};
Line(23) = {19, 20};
Line(24) = {20, 9};
Line(25) = {9, 21};
Line(26) = {10, 22};
Line(29) = {13, 25};
Line(30) = {14, 26};
Line(31) = {15, 27};
Line(32) = {16, 28};
Line(33) = {17, 29};
Line(34) = {18, 30};
Line(35) = {19, 31};
Line(36) = {20, 32};
Line(37) = {21, 22};
Line(38) = {22, 25};
Line(41) = {25, 26};
Line(42) = {26, 27};
Line(43) = {27, 28};
Line(44) = {28, 29};
Line(45) = {29, 30};
Line(46) = {30, 31};
Line(47) = {31, 32};
Line(48) = {32, 21};
Line(49) = {10, 19};
Line(52) = {13, 16};
Line(53) = {22, 31};
Line(56) = {25, 28};
Line(62) = {15, 39};
Line(63) = {39, 40};
Line(64) = {40, 41};
Line(65) = {41, 42};
Line(66) = {42, 43};
Line(67) = {43, 44};
Line(68) = {44, 20};
Line(75) = {39, 51};
Line(76) = {40, 52};
Line(77) = {41, 53};
Line(78) = {42, 54};
Line(79) = {43, 55};
Line(80) = {44, 56};
Line(86) = {27, 51};
Line(87) = {51, 52};
Line(88) = {52, 53};
Line(89) = {53, 54};
Line(90) = {54, 55};
Line(91) = {55, 56};
Line(92) = {56, 32};
Line(93) = {19, 43};
Line(94) = {18, 42};
Line(95) = {17, 41};
Line(96) = {16, 40};
Line(97) = {31, 55};
Line(98) = {30, 54};
Line(99) = {29, 53};
Line(100) = {28, 52};
Line(106) = {39, 63};
Line(107) = {63, 64};
Line(108) = {64, 67};
Line(111) = {67, 68};
Line(112) = {68, 44};
Line(119) = {63, 75};
Line(120) = {64, 76};
Line(123) = {67, 79};
Line(124) = {68, 80};
Line(130) = {51, 75};
Line(131) = {75, 76};
Line(132) = {76, 79};
Line(135) = {79, 80};
Line(136) = {80, 56};
Line(137) = {43, 67};
Line(140) = {40, 64};
Line(141) = {55, 79};
Line(144) = {52, 76};
Line(157) = {21, 93};
Line(158) = {22, 94};
Line(161) = {25, 97};
Line(162) = {26, 98};
Line(163) = {27, 99};
Line(164) = {28, 100};
Line(165) = {29, 101};
Line(166) = {30, 102};
Line(167) = {31, 103};
Line(168) = {32, 104};
Line(169) = {93, 94};
Line(170) = {94, 97};
Line(173) = {97, 98};
Line(174) = {98, 99};
Line(175) = {99, 100};
Line(176) = {100, 101};
Line(177) = {101, 102};
Line(178) = {102, 103};
Line(179) = {103, 104};
Line(180) = {104, 93};
Line(185) = {94, 103};
Line(188) = {97, 100};
Line(207) = {51, 123};
Line(208) = {52, 124};
Line(209) = {53, 125};
Line(210) = {54, 126};
Line(211) = {55, 127};
Line(212) = {56, 128};
Line(218) = {99, 123};
Line(219) = {123, 124};
Line(220) = {124, 125};
Line(221) = {125, 126};
Line(222) = {126, 127};
Line(223) = {127, 128};
Line(224) = {128, 104};
Line(229) = {103, 127};
Line(230) = {102, 126};
Line(231) = {101, 125};
Line(232) = {100, 124};
Line(251) = {75, 147};
Line(252) = {76, 148};
Line(255) = {79, 151};
Line(256) = {80, 152};
Line(262) = {123, 147};
Line(263) = {147, 148};
Line(264) = {148, 151};
Line(267) = {151, 152};
Line(268) = {152, 128};
Line(273) = {127, 151};
Line(276) = {124, 148};
Line(289) = {93, 165};
Line(290) = {94, 166};
Line(293) = {97, 169};
Line(294) = {98, 170};
Line(295) = {99, 171};
Line(296) = {100, 172};
Line(297) = {101, 173};
Line(298) = {102, 174};
Line(299) = {103, 175};
Line(300) = {104, 176};
Line(301) = {165, 166};
Line(302) = {166, 169};
Line(305) = {169, 170};
Line(306) = {170, 171};
Line(307) = {171, 172};
Line(308) = {172, 173};
Line(309) = {173, 174};
Line(310) = {174, 175};
Line(311) = {175, 176};
Line(312) = {176, 165};
Line(317) = {166, 175};
Line(320) = {169, 172};
Line(339) = {123, 195};
Line(340) = {124, 196};
Line(341) = {125, 197};
Line(342) = {126, 198};
Line(343) = {127, 199};
Line(344) = {128, 200};
Line(350) = {171, 195};
Line(351) = {195, 196};
Line(352) = {196, 197};
Line(353) = {197, 198};
Line(354) = {198, 199};
Line(355) = {199, 200};
Line(356) = {200, 176};
Line(361) = {175, 199};
Line(362) = {174, 198};
Line(363) = {173, 197};
Line(364) = {172, 196};
Line(383) = {147, 219};
Line(384) = {148, 220};
Line(387) = {151, 223};
Line(388) = {152, 224};
Line(394) = {195, 219};
Line(395) = {219, 220};
Line(396) = {220, 223};
Line(399) = {223, 224};
Line(400) = {224, 200};
Line(405) = {199, 223};
Line(408) = {196, 220};
Line(409) = {165, 225};
Line(410) = {166, 226};
Line(411) = {169, 227};
Line(412) = {170, 228};
Line(413) = {171, 229};
Line(414) = {195, 230};
Line(415) = {219, 231};
Line(416) = {220, 232};
Line(417) = {223, 233};
Line(418) = {224, 234};
Line(419) = {200, 235};
Line(420) = {176, 236};
Line(421) = {175, 237};
Line(422) = {172, 238};
Line(423) = {196, 239};
Line(424) = {199, 240};
Line(425) = {225, 226};
Line(426) = {226, 227};
Line(427) = {227, 228};
Line(428) = {228, 229};
Line(429) = {229, 230};
Line(430) = {230, 231};
Line(431) = {231, 232};
Line(432) = {232, 233};
Line(433) = {233, 234};
Line(434) = {234, 235};
Line(435) = {235, 236};
Line(436) = {236, 225};
Line(437) = {226, 237};
Line(438) = {237, 240};
Line(439) = {240, 233};
Line(440) = {227, 238};
Line(441) = {238, 239};
Line(442) = {239, 232};
Line(443) = {236, 237};
Line(444) = {238, 229};
Line(449) = {235, 240};
Line(450) = {239, 230};
Line(451) = {5, 9};
Line(452) = {6, 14};
Line(453) = {7, 63};
Line(454) = {8, 68};
Line(455) = {241, 242};
Line(456) = {242, 243};
Line(457) = {243, 244};
Line(458) = {244, 241};
Line(459) = {241, 245};
Line(460) = {242, 246};
Line(461) = {243, 247};
Line(462) = {244, 248};
Line(463) = {245, 246};
Line(464) = {246, 247};
Line(465) = {247, 248};
Line(466) = {248, 245};
Line(467) = {249, 250};
Line(468) = {250, 251};
Line(469) = {251, 252};
Line(470) = {252, 249};
Line(471) = {249, 253};
Line(472) = {250, 254};
Line(473) = {251, 255};
Line(474) = {252, 256};
Line(475) = {253, 254};
Line(476) = {254, 255};
Line(477) = {255, 256};
Line(478) = {256, 253};
Line(479) = {257, 258};
Line(480) = {258, 259};
Line(481) = {259, 260};
Line(482) = {260, 257};
Line(483) = {261, 262};
Line(484) = {262, 263};
Line(485) = {263, 264};
Line(486) = {264, 261};
Line(487) = {261, 260};
Line(488) = {262, 259};
Line(489) = {263, 266};
Line(490) = {264, 265};
Line(491) = {265, 266};
Line(492) = {266, 267};
Line(493) = {267, 268};
Line(494) = {268, 265};
Line(495) = {257, 269};
Line(496) = {258, 270};
Line(497) = {267, 271};
Line(498) = {268, 272};
Line(499) = {269, 270};
Line(500) = {270, 271};
Line(501) = {271, 272};
Line(502) = {272, 269};
Line(503) = {273, 274};
Line(504) = {274, 275};
Line(505) = {275, 276};
Line(506) = {276, 273};
Line(507) = {277, 278};
Line(508) = {278, 279};
Line(509) = {279, 280};
Line(510) = {280, 277};
Line(511) = {277, 276};
Line(512) = {278, 275};
Line(513) = {279, 282};
Line(514) = {280, 281};
Line(515) = {281, 282};
Line(516) = {282, 283};
Line(517) = {283, 284};
Line(518) = {284, 281};
Line(519) = {273, 285};
Line(520) = {274, 286};
Line(521) = {283, 287};
Line(522) = {284, 288};
Line(523) = {285, 286};
Line(524) = {286, 287};
Line(525) = {287, 288};
Line(526) = {288, 285};
Line(527) = {289, 290};
Line(528) = {290, 291};
Line(529) = {291, 292};
Line(530) = {292, 289};
Line(531) = {293, 294};
Line(532) = {294, 295};
Line(533) = {295, 296};
Line(534) = {296, 293};
Line(535) = {293, 292};
Line(536) = {294, 291};
Line(537) = {295, 298};
Line(538) = {296, 297};
Line(539) = {297, 298};
Line(540) = {298, 299};
Line(541) = {299, 300};
Line(542) = {300, 297};
Line(543) = {289, 301};
Line(544) = {290, 302};
Line(545) = {299, 303};
Line(546) = {300, 304};
Line(547) = {301, 302};
Line(548) = {302, 303};
Line(549) = {303, 304};
Line(550) = {304, 301};
Line(551) = {305, 306};
Line(552) = {306, 310};
Line(553) = {310, 314};
Line(554) = {314, 305};
Line(556) = {314, 326};
Line(557) = {326, 330};
Line(558) = {330, 310};
Line(560) = {330, 342};
Line(561) = {342, 346};
Line(562) = {346, 326};
Line(564) = {342, 358};
Line(565) = {358, 362};
Line(566) = {362, 346};
Line(568) = {358, 374};
Line(569) = {374, 378};
Line(570) = {378, 362};
Line(572) = {306, 390};
Line(573) = {390, 394};
Line(574) = {394, 305};
Line(581) = {374, 426};
Line(582) = {426, 390};
Line(585) = {378, 442};
Line(586) = {442, 426};
Line(594) = {394, 442};
Line(599) = {497, 498};
Line(600) = {498, 502};
Line(601) = {502, 506};
Line(602) = {506, 497};
Line(604) = {506, 518};
Line(605) = {518, 522};
Line(606) = {522, 502};
Line(608) = {522, 534};
Line(609) = {534, 538};
Line(610) = {538, 518};
Line(612) = {534, 550};
Line(613) = {550, 554};
Line(614) = {554, 538};
Line(616) = {550, 566};
Line(617) = {566, 570};
Line(618) = {570, 554};
Line(620) = {498, 582};
Line(621) = {582, 586};
Line(622) = {586, 497};
Line(629) = {566, 618};
Line(630) = {618, 582};
Line(633) = {570, 634};
Line(634) = {634, 618};
Line(642) = {586, 634};
Line(647) = {689, 690};
Line(648) = {690, 694};
Line(649) = {694, 698};
Line(650) = {698, 689};
Line(652) = {698, 710};
Line(653) = {710, 714};
Line(654) = {714, 694};
Line(656) = {714, 726};
Line(657) = {726, 730};
Line(658) = {730, 710};
Line(660) = {726, 742};
Line(661) = {742, 746};
Line(662) = {746, 730};
Line(664) = {742, 758};
Line(665) = {758, 762};
Line(666) = {762, 746};
Line(668) = {690, 774};
Line(669) = {774, 778};
Line(670) = {778, 689};
Line(677) = {758, 810};
Line(678) = {810, 774};
Line(681) = {762, 826};
Line(682) = {826, 810};
Line(690) = {778, 826};
Line(695) = {881, 882};
Line(696) = {882, 886};
Line(697) = {886, 890};
Line(698) = {890, 881};
Line(700) = {890, 902};
Line(701) = {902, 906};
Line(702) = {906, 886};
Line(704) = {906, 918};
Line(705) = {918, 922};
Line(706) = {922, 902};
Line(708) = {918, 934};
Line(709) = {934, 938};
Line(710) = {938, 922};
Line(712) = {934, 950};
Line(713) = {950, 954};
Line(714) = {954, 938};
Line(716) = {882, 966};
Line(717) = {966, 970};
Line(718) = {970, 881};
Line(725) = {950, 1002};
Line(726) = {1002, 966};
Line(729) = {954, 1018};
Line(730) = {1018, 1002};
Line(738) = {970, 1018};
Line(1001) = {225, 10001};
Line(1002) = {228, 10002};
Line(1003) = {231, 10003};
Line(1004) = {234, 10004};
Line(1005) = {10001, 10002};
Line(1006) = {10002, 10003};
Line(1007) = {10003, 10004};
Line(1008) = {10004, 10001};
Curve Loop(6) = {9, 10, 11, 12};
Plane Surface(6) = {6};
Curve Loop(7) = {13, 49, 23, 24};
Plane Surface(7) = {7};
Curve Loop(8) = {14, 52, 20, 21, 22, -49};
Plane Surface(8) = {8};
Curve Loop(11) = {17, 18, 19, -52};
Plane Surface(11) = {11};
Curve Loop(12) = {24, 25, -48, -36};
Plane Surface(12) = {12};
Curve Loop(13) = {-49, 26, 53, -35};
Plane Surface(13) = {13};
Curve Loop(16) = {-52, 29, 56, -32};
Plane Surface(16) = {16};
Curve Loop(17) = {-18, 30, 42, -31};
Plane Surface(17) = {17};
Curve Loop(18) = {13, 26, -37, -25};
Plane Surface(18) = {18};
Curve Loop(19) = {14, 29, -38, -26};
Plane Surface(19) = {19};
Curve Loop(22) = {17, 30, -41, -29};
Plane Surface(22) = {22};
Curve Loop(23) = {19, 32, -43, -31};
Plane Surface(23) = {23};
Curve Loop(24) = {20, 33, -44, -32};
Plane Surface(24) = {24};
Curve Loop(25) = {21, 34, -45, -33};
Plane Surface(25) = {25};
Curve Loop(26) = {22, 35, -46, -34};
Plane Surface(26) = {26};
Curve Loop(27) = {23, 36, -47, -35};
Plane Surface(27) = {27};
Curve Loop(28) = {37, 53, 47, 48};
Plane Surface(28) = {28};
Curve Loop(29) = {38, 56, 44, 45, 46, -53};
Plane Surface(29) = {29};
Curve Loop(32) = {41, 42, 43, -56};
Plane Surface(32) = {32};
Curve Loop(33) = {-23, 93, 67, 68};
Surface(33) = {33};
Curve Loop(34) = {-22, 94, 66, -93};
Surface(34) = {34};
Curve Loop(35) = {-21, 95, 65, -94};
Surface(35) = {35};
Curve Loop(36) = {-20, 96, 64, -95};
Surface(36) = {36};
Curve Loop(37) = {-19, 62, 63, -96};
Surface(37) = {37};
Curve Loop(38) = {68, 36, -92, -80};
Surface(38) = {38};
Curve Loop(39) = {-93, 35, 97, -79};
Surface(39) = {39};
Curve Loop(40) = {-94, 34, 98, -78};
Surface(40) = {40};
Curve Loop(41) = {-95, 33, 99, -77};
Surface(41) = {41};
Curve Loop(42) = {-96, 32, 100, -76};
Surface(42) = {42};
Curve Loop(43) = {-62, 31, 86, -75};
Surface(43) = {43};
Curve Loop(49) = {63, 76, -87, -75};
Surface(49) = {49};
Curve Loop(50) = {64, 77, -88, -76};
Surface(50) = {50};
Curve Loop(51) = {65, 78, -89, -77};
Surface(51) = {51};
Curve Loop(52) = {66, 79, -90, -78};
Surface(52) = {52};
Curve Loop(53) = {67, 80, -91, -79};
Surface(53) = {53};
Curve Loop(54) = {-47, 97, 91, 92};
Surface(54) = {54};
Curve Loop(55) = {-46, 98, 90, -97};
Surface(55) = {55};
Curve Loop(56) = {-45, 99, 89, -98};
Surface(56) = {56};
Curve Loop(57) = {-44, 100, 88, -99};
Surface(57) = {57};
Curve Loop(58) = {-43, 86, 87, -100};
Surface(58) = {58};
Curve Loop(59) = {-67, 137, 111, 112};
Plane Surface(59) = {59};
Curve Loop(60) = {-66, -65, -64, 140, 108, -137};
Plane Surface(60) = {60};
Curve Loop(63) = {-63, 106, 107, -140};
Plane Surface(63) = {63};
Curve Loop(64) = {112, 80, -136, -124};
Plane Surface(64) = {64};
Curve Loop(65) = {-137, 79, 141, -123};
Plane Surface(65) = {65};
Curve Loop(68) = {-140, 76, 144, -120};
Plane Surface(68) = {68};
Curve Loop(69) = {-106, 75, 130, -119};
Plane Surface(69) = {69};
Curve Loop(75) = {107, 120, -131, -119};
Plane Surface(75) = {75};
Curve Loop(76) = {108, 123, -132, -120};
Plane Surface(76) = {76};
Curve Loop(79) = {111, 124, -135, -123};
Plane Surface(79) = {79};
Curve Loop(80) = {-91, 141, 135, 136};
Plane Surface(80) = {80};
Curve Loop(81) = {-90, -89, -88, 144, 132, -141};
Plane Surface(81) = {81};
Curve Loop(84) = {-87, 130, 131, -144};
Plane Surface(84) = {84};
Curve Loop(90) = {48, 157, -180, -168};
Plane Surface(90) = {90};
Curve Loop(91) = {-53, 158, 185, -167};
Plane Surface(91) = {91};
Curve Loop(94) = {-56, 161, 188, -164};
Plane Surface(94) = {94};
Curve Loop(95) = {-42, 162, 174, -163};
Plane Surface(95) = {95};
Curve Loop(96) = {37, 158, -169, -157};
Plane Surface(96) = {96};
Curve Loop(97) = {38, 161, -170, -158};
Plane Surface(97) = {97};
Curve Loop(100) = {41, 162, -173, -161};
Plane Surface(100) = {100};
Curve Loop(101) = {43, 164, -175, -163};
Plane Surface(101) = {101};
Curve Loop(102) = {44, 165, -176, -164};
Plane Surface(102) = {102};
Curve Loop(103) = {45, 166, -177, -165};
Plane Surface(103) = {103};
Curve Loop(104) = {46, 167, -178, -166};
Plane Surface(104) = {104};
Curve Loop(105) = {47, 168, -179, -167};
Plane Surface(105) = {105};
Curve Loop(106) = {169, 185, 179, 180};
Plane Surface(106) = {106};
Curve Loop(107) = {170, 188, 176, 177, 178, -185};
Plane Surface(107) = {107};
Curve Loop(110) = {173, 174, 175, -188};
Plane Surface(110) = {110};
Curve Loop(116) = {92, 168, -224, -212};
Surface(116) = {116};
Curve Loop(117) = {-97, 167, 229, -211};
Surface(117) = {117};
Curve Loop(118) = {-98, 166, 230, -210};
Surface(118) = {118};
Curve Loop(119) = {-99, 165, 231, -209};
Surface(119) = {119};
Curve Loop(120) = {-100, 164, 232, -208};
Surface(120) = {120};
Curve Loop(121) = {-86, 163, 218, -207};
Surface(121) = {121};
Curve Loop(127) = {87, 208, -219, -207};
Surface(127) = {127};
Curve Loop(128) = {88, 209, -220, -208};
Surface(128) = {128};
Curve Loop(129) = {89, 210, -221, -209};
Surface(129) = {129};
Curve Loop(130) = {90, 211, -222, -210};
Surface(130) = {130};
Curve Loop(131) = {91, 212, -223, -211};
Surface(131) = {131};
Curve Loop(132) = {-179, 229, 223, 224};
Surface(132) = {132};
Curve Loop(133) = {-178, 230, 222, -229};
Surface(133) = {133};
Curve Loop(134) = {-177, 231, 221, -230};
Surface(134) = {134};
Curve Loop(135) = {-176, 232, 220, -231};
Surface(135) = {135};
Curve Loop(136) = {-175, 218, 219, -232};
Surface(136) = {136};
Curve Loop(142) = {136, 212, -268, -256};
Plane Surface(142) = {142};
Curve Loop(143) = {-141, 211, 273, -255};
Plane Surface(143) = {143};
Curve Loop(146) = {-144, 208, 276, -252};
Plane Surface(146) = {146};
Curve Loop(147) = {-130, 207, 262, -251};
Plane Surface(147) = {147};
Curve Loop(153) = {131, 252, -263, -251};
Plane Surface(153) = {153};
Curve Loop(154) = {132, 255, -264, -252};
Plane Surface(154) = {154};
Curve Loop(157) = {135, 256, -267, -255};
Plane Surface(157) = {157};
Curve Loop(158) = {-223, 273, 267, 268};
Plane Surface(158) = {158};
Curve Loop(159) = {-222, -221, -220, 276, 264, -273};
Plane Surface(159) = {159};
Curve Loop(162) = {-219, 262, 263, -276};
Plane Surface(162) = {162};
Curve Loop(168) = {180, 289, -312, -300};
Plane Surface(168) = {168};
Curve Loop(169) = {-185, 290, 317, -299};
Plane Surface(169) = {169};
Curve Loop(172) = {-188, 293, 320, -296};
Plane Surface(172) = {172};
Curve Loop(173) = {-174, 294, 306, -295};
Plane Surface(173) = {173};
Curve Loop(174) = {169, 290, -301, -289};
Plane Surface(174) = {174};
Curve Loop(175) = {170, 293, -302, -290};
Plane Surface(175) = {175};
Curve Loop(178) = {173, 294, -305, -293};
Plane Surface(178) = {178};
Curve Loop(179) = {175, 296, -307, -295};
Plane Surface(179) = {179};
Curve Loop(180) = {176, 297, -308, -296};
Plane Surface(180) = {180};
Curve Loop(181) = {177, 298, -309, -297};
Plane Surface(181) = {181};
Curve Loop(182) = {178, 299, -310, -298};
Plane Surface(182) = {182};
Curve Loop(183) = {179, 300, -311, -299};
Plane Surface(183) = {183};
Curve Loop(184) = {301, 317, 311, 312};
Plane Surface(184) = {184};
Curve Loop(185) = {302, 320, 308, 309, 310, -317};
Plane Surface(185) = {185};
Curve Loop(188) = {305, 306, 307, -320};
Plane Surface(188) = {188};
Curve Loop(194) = {224, 300, -356, -344};
Plane Surface(194) = {194};
Curve Loop(195) = {-229, 299, 361, -343};
Plane Surface(195) = {195};
Curve Loop(196) = {-230, 298, 362, -342};
Plane Surface(196) = {196};
Curve Loop(197) = {-231, 297, 363, -341};
Plane Surface(197) = {197};
Curve Loop(198) = {-232, 296, 364, -340};
Plane Surface(198) = {198};
Curve Loop(199) = {-218, 295, 350, -339};
Plane Surface(199) = {199};
Curve Loop(205) = {219, 340, -351, -339};
Plane Surface(205) = {205};
Curve Loop(206) = {220, 341, -352, -340};
Plane Surface(206) = {206};
Curve Loop(207) = {221, 342, -353, -341};
Plane Surface(207) = {207};
Curve Loop(208) = {222, 343, -354, -342};
Plane Surface(208) = {208};
Curve Loop(209) = {223, 344, -355, -343};
Plane Surface(209) = {209};
Curve Loop(210) = {-311, 361, 355, 356};
Plane Surface(210) = {210};
Curve Loop(211) = {-310, 362, 354, -361};
Plane Surface(211) = {211};
Curve Loop(212) = {-309, 363, 353, -362};
Plane Surface(212) = {212};
Curve Loop(213) = {-308, 364, 352, -363};
Plane Surface(213) = {213};
Curve Loop(214) = {-307, 350, 351, -364};
Plane Surface(214) = {214};
Curve Loop(220) = {268, 344, -400, -388};
Plane Surface(220) = {220};
Curve Loop(221) = {-273, 343, 405, -387};
Plane Surface(221) = {221};
Curve Loop(224) = {-276, 340, 408, -384};
Plane Surface(224) = {224};
Curve Loop(225) = {-262, 339, 394, -383};
Plane Surface(225) = {225};
Curve Loop(231) = {263, 384, -395, -383};
Plane Surface(231) = {231};
Curve Loop(232) = {264, 387, -396, -384};
Plane Surface(232) = {232};
Curve Loop(235) = {267, 388, -399, -387};
Plane Surface(235) = {235};
Curve Loop(236) = {-355, 405, 399, 400};
Plane Surface(236) = {236};
Curve Loop(237) = {-354, -353, -352, 408, 396, -405};
Plane Surface(237) = {237};
Curve Loop(240) = {-351, 394, 395, -408};
Plane Surface(240) = {240};
Curve Loop(241) = {301, 410, -425, -409};
Plane Surface(241) = {241};
Curve Loop(242) = {302, 411, -426, -410};
Plane Surface(242) = {242};
Curve Loop(243) = {305, 412, -427, -411};
Plane Surface(243) = {243};
Curve Loop(244) = {306, 413, -428, -412};
Plane Surface(244) = {244};
Curve Loop(245) = {350, 414, -429, -413};
Plane Surface(245) = {245};
Curve Loop(246) = {394, 415, -430, -414};
Plane Surface(246) = {246};
Curve Loop(247) = {395, 416, -431, -415};
Plane Surface(247) = {247};
Curve Loop(248) = {396, 417, -432, -416};
Plane Surface(248) = {248};
Curve Loop(249) = {399, 418, -433, -417};
Plane Surface(249) = {249};
Curve Loop(250) = {400, 419, -434, -418};
Plane Surface(250) = {250};
Curve Loop(251) = {356, 420, -435, -419};
Plane Surface(251) = {251};
Curve Loop(252) = {312, 409, -436, -420};
Plane Surface(252) = {252};
Curve Loop(253) = {-317, 410, 437, -421};
Plane Surface(253) = {253};
Curve Loop(254) = {-361, 421, 438, -424};
Plane Surface(254) = {254};
Curve Loop(255) = {-405, 424, 439, -417};
Plane Surface(255) = {255};
Curve Loop(256) = {-320, 411, 440, -422};
Plane Surface(256) = {256};
Curve Loop(257) = {-364, 422, 441, -423};
Plane Surface(257) = {257};
Curve Loop(258) = {-408, 423, 442, -416};
Plane Surface(258) = {258};
Curve Loop(259) = {-311, 421, -443, -420};
Plane Surface(259) = {259};
Curve Loop(260) = {-355, 424, -449, -419};
Plane Surface(260) = {260};
Curve Loop(261) = {-307, 413, -444, -422};
Plane Surface(261) = {261};
Curve Loop(262) = {-351, 414, -450, -423};
Plane Surface(262) = {262};
Curve Loop(263) = {425, 437, -443, 436};
Plane Surface(263) = {263};
Curve Loop(264) = {443, 438, -449, 435};
Plane Surface(264) = {264};
Curve Loop(265) = {449, 439, 433, 434};
Plane Surface(265) = {265};
Curve Loop(266) = {427, 428, -444, -440};
Plane Surface(266) = {266};
Curve Loop(267) = {444, 429, -450, -441};
Plane Surface(267) = {267};
Curve Loop(268) = {450, 430, 431, -442};
Plane Surface(268) = {268};
Curve Loop(269) = {426, 440, 441, 442, 432, -439, -438, -437};
Plane Surface(269) = {269};
Curve Loop(270) = {9, 452, -17, -14, -13, -451};
Plane Surface(270) = {270};
Curve Loop(271) = {10, 453, -106, -62, -18, -452};
Plane Surface(271) = {271};
Curve Loop(272) = {11, 454, -111, -108, -107, -453};
Plane Surface(272) = {272};
Curve Loop(273) = {12, 451, -24, -68, -112, -454};
Plane Surface(273) = {273};
Curve Loop(274) = {455, 456, 457, 458};
Plane Surface(274) = {274};
Curve Loop(275) = {455, 460, -463, -459};
Plane Surface(275) = {275};
Curve Loop(276) = {456, 461, -464, -460};
Plane Surface(276) = {276};
Curve Loop(277) = {457, 462, -465, -461};
Plane Surface(277) = {277};
Curve Loop(278) = {458, 459, -466, -462};
Plane Surface(278) = {278};
Curve Loop(279) = {463, 464, 465, 466};
Plane Surface(279) = {279};
Curve Loop(280) = {467, 468, 469, 470};
Plane Surface(280) = {280};
Curve Loop(281) = {467, 472, -475, -471};
Plane Surface(281) = {281};
Curve Loop(282) = {468, 473, -476, -472};
Plane Surface(282) = {282};
Curve Loop(283) = {469, 474, -477, -473};
Plane Surface(283) = {283};
Curve Loop(284) = {470, 471, -478, -474};
Plane Surface(284) = {284};
Curve Loop(285) = {475, 476, 477, 478};
Plane Surface(285) = {285};
Curve Loop(286) = {479, 480, 481, 482};
Plane Surface(286) = {286};
Curve Loop(287) = {481, -487, 483, 488};
Plane Surface(287) = {287};
Curve Loop(288) = {483, 484, 485, 486};
Plane Surface(288) = {288};
Curve Loop(289) = {-485, 489, -491, -490};
Plane Surface(289) = {289};
Curve Loop(290) = {491, 492, 493, 494};
Plane Surface(290) = {290};
Curve Loop(291) = {479, 496, -499, -495};
Plane Surface(291) = {291};
Curve Loop(292) = {-496, 480, -488, 484, 489, 492, 497, -500};
Plane Surface(292) = {292};
Curve Loop(293) = {-497, 493, 498, -501};
Plane Surface(293) = {293};
Curve Loop(294) = {-498, 494, -490, 486, 487, 482, 495, -502};
Plane Surface(294) = {294};
Curve Loop(295) = {499, 500, 501, 502};
Plane Surface(295) = {295};
Curve Loop(296) = {503, 504, 505, 506};
Plane Surface(296) = {296};
Curve Loop(297) = {505, -511, 507, 512};
Plane Surface(297) = {297};
Curve Loop(298) = {507, 508, 509, 510};
Plane Surface(298) = {298};
Curve Loop(299) = {-509, 513, -515, -514};
Plane Surface(299) = {299};
Curve Loop(300) = {515, 516, 517, 518};
Plane Surface(300) = {300};
Curve Loop(301) = {503, 520, -523, -519};
Plane Surface(301) = {301};
Curve Loop(302) = {-520, 504, -512, 508, 513, 516, 521, -524};
Plane Surface(302) = {302};
Curve Loop(303) = {-521, 517, 522, -525};
Plane Surface(303) = {303};
Curve Loop(304) = {-522, 518, -514, 510, 511, 506, 519, -526};
Plane Surface(304) = {304};
Curve Loop(305) = {523, 524, 525, 526};
Plane Surface(305) = {305};
Curve Loop(306) = {527, 528, 529, 530};
Plane Surface(306) = {306};
Curve Loop(307) = {529, -535, 531, 536};
Plane Surface(307) = {307};
Curve Loop(308) = {531, 532, 533, 534};
Plane Surface(308) = {308};
Curve Loop(309) = {-533, 537, -539, -538};
Plane Surface(309) = {309};
Curve Loop(310) = {539, 540, 541, 542};
Plane Surface(310) = {310};
Curve Loop(311) = {527, 544, -547, -543};
Plane Surface(311) = {311};
Curve Loop(312) = {-544, 528, -536, 532, 537, 540, 545, -548};
Plane Surface(312) = {312};
Curve Loop(313) = {-545, 541, 546, -549};
Plane Surface(313) = {313};
Curve Loop(314) = {-546, 542, -538, 534, 535, 530, 543, -550};
Plane Surface(314) = {314};
Curve Loop(315) = {547, 548, 549, 550};
Plane Surface(315) = {315};
Curve Loop(316) = {551, 552, 553, 554};
Plane Surface(316) = {316};
Curve Loop(317) = {553, 556, 557, 558};
Plane Surface(317) = {317};
Curve Loop(318) = {557, 560, 561, 562};
Plane Surface(318) = {318};
Curve Loop(319) = {-561, 564, 565, 566};
Plane Surface(319) = {319};
Curve Loop(320) = {-565, 568, 569, 570};
Plane Surface(320) = {320};
Curve Loop(321) = {551, 572, 573, 574};
Plane Surface(321) = {321};
Curve Loop(322) = {-572, 552, -558, 560, 564, 568, 581, 582};
Plane Surface(322) = {322};
Curve Loop(323) = {-581, 569, 585, 586};
Plane Surface(323) = {323};
Curve Loop(324) = {-585, 570, 566, 562, -556, 554, -574, 594};
Plane Surface(324) = {324};
Curve Loop(325) = {-573, -582, -586, -594};
Plane Surface(325) = {325};
Curve Loop(326) = {599, 600, 601, 602};
Plane Surface(326) = {326};
Curve Loop(327) = {601, 604, 605, 606};
Plane Surface(327) = {327};
Curve Loop(328) = {605, 608, 609, 610};
Plane Surface(328) = {328};
Curve Loop(329) = {-609, 612, 613, 614};
Plane Surface(329) = {329};
Curve Loop(330) = {-613, 616, 617, 618};
Plane Surface(330) = {330};
Curve Loop(331) = {599, 620, 621, 622};
Plane Surface(331) = {331};
Curve Loop(332) = {-620, 600, -606, 608, 612, 616, 629, 630};
Plane Surface(332) = {332};
Curve Loop(333) = {-629, 617, 633, 634};
Plane Surface(333) = {333};
Curve Loop(334) = {-633, 618, 614, 610, -604, 602, -622, 642};
Plane Surface(334) = {334};
Curve Loop(335) = {-621, -630, -634, -642};
Plane Surface(335) = {335};
Curve Loop(336) = {647, 648, 649, 650};
Plane Surface(336) = {336};
Curve Loop(337) = {649, 652, 653, 654};
Plane Surface(337) = {337};
Curve Loop(338) = {653, 656, 657, 658};
Plane Surface(338) = {338};
Curve Loop(339) = {-657, 660, 661, 662};
Plane Surface(339) = {339};
Curve Loop(340) = {-661, 664, 665, 666};
Plane Surface(340) = {340};
Curve Loop(341) = {647, 668, 669, 670};
Plane Surface(341) = {341};
Curve Loop(342) = {-668, 648, -654, 656, 660, 664, 677, 678};
Plane Surface(342) = {342};
Curve Loop(343) = {-677, 665, 681, 682};
Plane Surface(343) = {343};
Curve Loop(344) = {-681, 666, 662, 658, -652, 650, -670, 690};
Plane Surface(344) = {344};
Curve Loop(345) = {-669, -678, -682, -690};
Plane Surface(345) = {345};
Curve Loop(346) = {695, 696, 697, 698};
Plane Surface(346) = {346};
Curve Loop(347) = {697, 700, 701, 702};
Plane Surface(347) = {347};
Curve Loop(348) = {701, 704, 705, 706};
Plane Surface(348) = {348};
Curve Loop(349) = {-705, 708, 709, 710};
Plane Surface(349) = {349};
Curve Loop(350) = {-709, 712, 713, 714};
Plane Surface(350) = {350};
Curve Loop(351) = {695, 716, 717, 718};
Plane Surface(351) = {351};
Curve Loop(352) = {-716, 696, -702, 704, 708, 712, 725, 726};
Plane Surface(352) = {352};
Curve Loop(353) = {-725, 713, 729, 730};
Plane Surface(353) = {353};
Curve Loop(354) = {-729, 714, 710, 706, -700, 698, -718, 738};
Plane Surface(354) = {354};
Curve Loop(355) = {-717, -726, -730, -738};
Plane Surface(355) = {355};
Curve Loop(1001) = {425, 426, 427, 1002, -1005, -1001};
Plane Surface(1001) = {1001};
Curve Loop(1002) = {428, 429, 430, 1003, -1006, -1002};
Plane Surface(1002) = {1002};
Curve Loop(1003) = {431, 432, 433, 1004, -1007, -1003};
Plane Surface(1003) = {1003};
Curve Loop(1004) = {434, 435, 436, 1001, -1008, -1004};
Plane Surface(1004) = {1004};
Curve Loop(1005) = {1005, 1006, 1007, 1008};
Plane Surface(1005) = {1005};
Surface Loop(2) = {7, 12, 13, 18, 27, 28};
Volume(2) = {2};
Surface Loop(3) = {8, 13, 16, 19, 26, 25, 24, 29};
Volume(3) = {3};
Surface Loop(6) = {11, 16, 17, 22, 23, 32};
Volume(6) = {6};
Surface Loop(7) = {33, 38, 39, 27, 53, 54};
Volume(7) = {7};
Surface Loop(8) = {34, 39, 40, 26, 52, 55};
Volume(8) = {8};
Surface Loop(9) = {35, 40, 41, 25, 51, 56};
Volume(9) = {9};
Surface Loop(10) = {36, 41, 42, 24, 50, 57};
Volume(10) = {10};
Surface Loop(11) = {37, 42, 43, 23, 49, 58};
Volume(11) = {11};
Surface Loop(12) = {59, 64, 65, 53, 79, 80};
Volume(12) = {12};
Surface Loop(13) = {60, 65, 68, 52, 51, 50, 76, 81};
Volume(13) = {13};
Surface Loop(16) = {63, 68, 69, 49, 75, 84};
Volume(16) = {16};
Surface Loop(17) = {28, 90, 91, 96, 105, 106};
Volume(17) = {17};
Surface Loop(18) = {29, 91, 94, 97, 104, 103, 102, 107};
Volume(18) = {18};
Surface Loop(21) = {32, 94, 95, 100, 101, 110};
Volume(21) = {21};
Surface Loop(22) = {54, 116, 117, 105, 131, 132};
Volume(22) = {22};
Surface Loop(23) = {55, 117, 118, 104, 130, 133};
Volume(23) = {23};
Surface Loop(24) = {56, 118, 119, 103, 129, 134};
Volume(24) = {24};
Surface Loop(25) = {57, 119, 120, 102, 128, 135};
Volume(25) = {25};
Surface Loop(26) = {58, 120, 121, 101, 127, 136};
Volume(26) = {26};
Surface Loop(27) = {80, 142, 143, 131, 157, 158};
Volume(27) = {27};
Surface Loop(28) = {81, 143, 146, 130, 129, 128, 154, 159};
Volume(28) = {28};
Surface Loop(31) = {84, 146, 147, 127, 153, 162};
Volume(31) = {31};
Surface Loop(32) = {106, 168, 169, 174, 183, 184};
Volume(32) = {32};
Surface Loop(33) = {107, 169, 172, 175, 182, 181, 180, 185};
Volume(33) = {33};
Surface Loop(36) = {110, 172, 173, 178, 179, 188};
Volume(36) = {36};
Surface Loop(37) = {132, 194, 195, 183, 209, 210};
Volume(37) = {37};
Surface Loop(38) = {133, 195, 196, 182, 208, 211};
Volume(38) = {38};
Surface Loop(39) = {134, 196, 197, 181, 207, 212};
Volume(39) = {39};
Surface Loop(40) = {135, 197, 198, 180, 206, 213};
Volume(40) = {40};
Surface Loop(41) = {136, 198, 199, 179, 205, 214};
Volume(41) = {41};
Surface Loop(42) = {158, 220, 221, 209, 235, 236};
Volume(42) = {42};
Surface Loop(43) = {159, 221, 224, 208, 207, 206, 232, 237};
Volume(43) = {43};
Surface Loop(46) = {162, 224, 225, 205, 231, 240};
Volume(46) = {46};
Surface Loop(47) = {184, 241, 253, 259, 252, 263};
Volume(47) = {47};
Surface Loop(48) = {210, 259, 254, 260, 251, 264};
Volume(48) = {48};
Surface Loop(49) = {236, 260, 255, 249, 250, 265};
Volume(49) = {49};
Surface Loop(50) = {188, 243, 244, 261, 256, 266};
Volume(50) = {50};
Surface Loop(51) = {214, 261, 245, 262, 257, 267};
Volume(51) = {51};
Surface Loop(52) = {240, 262, 246, 247, 258, 268};
Volume(52) = {52};
Surface Loop(53) = {185, 211, 212, 213, 237, 242, 256, 257, 258, 248, 255, 254, 253, 269};
Volume(53) = {53};
Surface Loop(54) = {270, 271, 272, 273, 6, 7, 8, 11, 33, 34, 35, 36, 37, 59, 60, 63};
Volume(54) = {54};
Surface Loop(55) = {274, 275, 276, 277, 278, 279};
Volume(55) = {55};
Surface Loop(56) = {280, 281, 282, 283, 284, 285};
Volume(56) = {56};
Surface Loop(57) = {286, 287, 288, 289, 290, 291, 292, 293, 294, 295};
Volume(57) = {57};
Surface Loop(58) = {296, 297, 298, 299, 300, 301, 302, 303, 304, 305};
Volume(58) = {58};
Surface Loop(59) = {306, 307, 308, 309, 310, 311, 312, 313, 314, 315};
Volume(59) = {59};
Surface Loop(60) = {316, 317, 318, 319, 320, 321, 322, 323, 324, 325};
Volume(60) = {60};
Surface Loop(61) = {326, 327, 328, 329, 330, 331, 332, 333, 334, 335};
Volume(61) = {61};
Surface Loop(62) = {336, 337, 338, 339, 340, 341, 342, 343, 344, 345};
Volume(62) = {62};
Surface Loop(63) = {346, 347, 348, 349, 350, 351, 352, 353, 354, 355};
Volume(63) = {63};
Surface Loop(64) = {1001, 1002, 1003, 1004, 1005, 263, 264, 265, 266, 267, 268, 269, 274, 275, 276, 277, 278, 279, 280, 281, 282, 283, 284, 285, 296, 297, 298, 299, 300, 301, 302, 303, 304, 305, 286, 287, 288, 289, 290, 291, 292, 293, 294, 295, 346, 347, 348, 349, 350, 351, 352, 353, 354, 355, 336, 337, 338, 339, 340, 341, 342, 343, 344, 345, 326, 327, 328, 329, 330, 331, 332, 333, 334, 335, 316, 317, 318, 319, 320, 321, 322, 323, 324, 325, 306, 307, 308, 309, 310, 311, 312, 313, 314, 315};
Volume(64) = {64};
Physical Surface("surface_ohmic_left") = {263, 265};
Physical Surface("surface_ohmic_right") = {266, 268};
Physical Surface("surface_Y1_gate") = {274};
Physical Surface("surface_Y2_gate") = {280};
Physical Surface("surface_Reservoir_L_X_gate") = {286, 287, 288, 289, 290};
Physical Surface("surface_Barrier_L_X_gate") = {296, 297, 298, 299, 300};
Physical Surface("surface_Plunger_L_X_gate") = {306, 307, 308, 309, 310};
Physical Surface("surface_Plunger_R_X_gate") = {316, 317, 318, 319, 320};
Physical Surface("surface_Reservoir_R_X_gate") = {326, 327, 328, 329, 330};
Physical Surface("surface_Barrier_M_X_gate") = {336, 337, 338, 339, 340};
Physical Surface("surface_Barrier_R_X_gate") = {346, 347, 348, 349, 350};
Physical Volume("region_pre_quantum_A_dop_left") = {2};
Physical Volume("region_pre_quantum_A_mid") = {3};
Physical Volume("region_pre_quantum_A_dop_right") = {6};
Physical Volume("region_pre_quantum_B_dop_left") = {7};
Physical Volume("region_pre_quantum_B_left") = {8};
Physical Volume("region_pre_quantum_B_mid") = {9};
Physical Volume("region_pre_quantum_B_right") = {10};
Physical Volume("region_pre_quantum_B_dop_right") = {11};
Physical Volume("region_pre_quantum_C_dop_left") = {12};
Physical Volume("region_pre_quantum_C_mid") = {13};
Physical Volume("region_pre_quantum_C_dop_right") = {16};
Physical Volume("region_quantum_A_dop_left") = {17};
Physical Volume("region_quantum_A_mid") = {18};
Physical Volume("region_quantum_A_dop_right") = {21};
Physical Volume("region_quantum_B_dop_left") = {22};
Physical Volume("region_quantum_B_left") = {23};
Physical Volume("region_quantum_B_mid") = {24};
Physical Volume("region_quantum_B_right") = {25};
Physical Volume("region_quantum_B_dop_right") = {26};
Physical Volume("region_quantum_C_dop_left") = {27};
Physical Volume("region_quantum_C_mid") = {28};
Physical Volume("region_quantum_C_dop_right") = {31};
Physical Volume("region_post_quantum_A_dop_left") = {32};
Physical Volume("region_post_quantum_A_mid") = {33};
Physical Volume("region_post_quantum_A_dop_right") = {36};
Physical Volume("region_post_quantum_B_dop_left") = {37};
Physical Volume("region_post_quantum_B_left") = {38};
Physical Volume("region_post_quantum_B_mid") = {39};
Physical Volume("region_post_quantum_B_right") = {40};
Physical Volume("region_post_quantum_B_dop_right") = {41};
Physical Volume("region_post_quantum_C_dop_left") = {42};
Physical Volume("region_post_quantum_C_mid") = {43};
Physical Volume("region_post_quantum_C_dop_right") = {46};
Physical Volume("region_bulk_top_A_dop_left") = {47};
Physical Volume("region_bulk_top_B_dop_left") = {48};
Physical Volume("region_bulk_top_C_dop_left") = {49};
Physical Volume("region_bulk_top_A_dop_right") = {50};
Physical Volume("region_bulk_top_B_dop_right") = {51};
Physical Volume("region_bulk_top_C_dop_right") = {52};
Physical Volume("region_bulk_top_mid") = {53};
Physical Volume("region_bulk_bottom") = {54};
Physical Volume("region_Y1_gate") = {55};
Physical Volume("region_Y2_gate") = {56};
Physical Volume("region_Reservoir_L_X_gate") = {57};
Physical Volume("region_Barrier_L_X_gate") = {58};
Physical Volume("region_Plunger_L_X_gate") = {59};
Physical Volume("region_Plunger_R_X_gate") = {60};
Physical Volume("region_Reservoir_R_X_gate") = {61};
Physical Volume("region_Barrier_M_X_gate") = {62};
Physical Volume("region_Barrier_R_X_gate") = {63};
Physical Volume("region_top_oxide") = {64};
